<svg width="298" height="144" viewBox="0 0 298 144" fill="none" xmlns="http://www.w3.org/2000/svg">
<path d="M152.174 91.4719L124.414 75.554L93.8844 128.071L121.645 143.989L152.174 91.4719Z" fill="#E61D5E"/>
<path d="M175.071 75.5645L147.311 91.4824L177.84 144L205.601 128.082L175.071 75.5645Z" fill="url(#paint0_linear_1_178)"/>
<path d="M118.488 38.5315C94.9193 15.124 56.591 15.2734 32.8506 38.8515C12.2685 59.293 9.43255 90.6167 24.4072 113.853C45.7198 127.381 73.8001 126.229 94.1889 110.439C80.5677 120.148 61.5754 119.038 49.4367 106.983C35.9229 93.5613 36.0518 71.7115 49.6945 58.1621C63.3371 44.6127 85.3587 44.4847 98.851 57.906L123.3 82.1883L142.873 62.7497L118.488 38.5315Z" fill="url(#paint1_linear_1_178)"/>
<path d="M181.309 102.715C204.877 126.123 243.206 125.973 266.946 102.395C287.528 81.9536 290.364 50.63 275.39 27.3933C254.077 13.8652 225.997 15.0174 205.608 30.8073C219.229 21.0986 238.221 22.2082 250.36 34.264C263.874 47.6854 263.745 69.5351 250.102 83.0845C236.46 96.6339 214.438 96.762 200.946 83.3406L176.496 59.0583L156.924 78.4969L181.309 102.715Z" fill="url(#paint2_linear_1_178)"/>
<path d="M282.501 29.0576C282.501 29.0576 282.415 28.9296 282.35 28.8656C281.663 28.0121 280.932 27.1799 280.202 26.3477C280.094 26.2197 279.987 26.0917 279.858 25.9423C279.02 25.0035 278.139 24.0859 277.237 23.1898C249.694 -4.16512 204.856 -3.99442 177.076 23.5738L150.092 50.3739L126.824 73.4826L126.91 73.568L100.183 99.8986L98.6364 101.414C97.0036 103.035 95.2634 104.465 93.4372 105.745C69.3961 124.202 36.2885 125.546 11.1516 109.714C12.4622 111.741 13.9016 113.725 15.47 115.646C15.513 115.71 15.5559 115.774 15.6204 115.838C16.3079 116.691 17.0384 117.524 17.7903 118.356C17.8977 118.484 18.0266 118.612 18.1341 118.761C18.972 119.7 19.8528 120.617 20.7767 121.514C48.5561 148.869 93.7595 148.698 121.754 121.13L148.975 94.3295L148.803 94.1588L171.147 71.9676L198.518 44.7835L200.043 43.2685C201.676 41.6468 203.395 40.2172 205.199 38.9369C229.047 20.4799 261.897 19.1356 286.819 34.9681" fill="url(#paint3_linear_1_178)"/>
<path d="M122.398 20.6287C94.5541 -7.0249 49.2219 -6.8542 21.1631 21.0128C-3.1788 45.167 -6.53038 82.2092 11.1514 109.671C36.3527 125.653 69.5462 124.287 93.6303 105.638C77.5169 117.118 55.0656 115.795 40.7355 101.562C24.7725 85.7085 24.9014 59.8686 41.0363 43.8441C57.1711 27.8195 83.1888 27.6915 99.1518 43.5453L128.048 72.2445L151.187 49.2638L122.355 20.6287H122.398Z" fill="#E61D5E"/>
<path d="M286.604 34.9895C261.682 19.1783 228.853 20.5225 205.006 38.9796C220.947 27.6066 243.162 28.9296 257.342 43.0124C273.133 58.6956 273.004 84.2581 257.041 100.112C241.078 115.966 215.34 116.094 199.549 100.411L170.953 72.0103L148.05 94.7562L176.56 123.071C204.103 150.426 248.941 150.255 276.721 122.687C300.784 98.7891 304.092 62.131 286.604 34.9895Z" fill="#E61D5E"/>
<defs>
<linearGradient id="paint0_linear_1_178" x1="147.307" y1="109.784" x2="205.594" y2="109.784" gradientUnits="userSpaceOnUse">
<stop stop-color="#863045"/>
<stop offset="1" stop-color="#DC2772"/>
</linearGradient>
<linearGradient id="paint1_linear_1_178" x1="142.851" y1="72.1383" x2="14.9541" y2="72.1383" gradientUnits="userSpaceOnUse">
<stop stop-color="#2A0002"/>
<stop offset="1" stop-color="#DC2772"/>
</linearGradient>
<linearGradient id="paint2_linear_1_178" x1="156.924" y1="69.1084" x2="284.843" y2="69.1084" gradientUnits="userSpaceOnUse">
<stop stop-color="#2A0002"/>
<stop offset="1" stop-color="#DC2772"/>
</linearGradient>
<linearGradient id="paint3_linear_1_178" x1="11.1731" y1="72.3944" x2="286.776" y2="72.3944" gradientUnits="userSpaceOnUse">
<stop stop-color="#863045"/>
<stop offset="1" stop-color="#193169"/>
</linearGradient>
</defs>
</svg>
